<?xml version="1.0" encoding="utf-8"?>
<!-- Generator: Adobe Illustrator 23.0.1, SVG Export Plug-In . SVG Version: 6.00 Build 0)  -->
<svg version="1.0" id="Layer_1" xmlns="http://www.w3.org/2000/svg" xmlns:xlink="http://www.w3.org/1999/xlink" x="0px" y="0px"
	 viewBox="0 0 102.7 88" style="enable-background:new 0 0 102.7 88;" xml:space="preserve">
<style type="text/css">
	.st0{fill:#0F9ABE;}
</style>
<path class="st0" d="M58.6,21.7c-1-0.8-8.9-3.1-15.5-4.6c0,5.1,0.3,10.6,0.9,11.5c1,0.8,8.9,3.1,15.5,4.6
	C59.6,28.1,59.3,22.6,58.6,21.7 M51.4,0C37.3,0,26,11.4,26,25.4s11.4,25.4,25.4,25.4s25.4-11.4,25.4-25.4l0,0
	C76.7,11.4,65.4,0,51.4,0 M68.5,34.8c-0.7,0.2-4.5-0.5-8.9-1.6c0,4.4-0.4,8.4-0.9,8.9C57,42.7,35.8,37.4,34.2,36
	c-1.3-1.8-1.3-19.3,0-20.5c0.7-0.2,4.5,0.5,8.9,1.6c0-4.4,0.3-8.4,0.9-8.9c1.6-0.6,22.8,4.8,24.4,6.2C69.7,16.1,69.7,33.6,68.5,34.8
	 M30,61.8c-5.7,0-10.2,3.1-10.2,11.1V77c0.1,8,4.6,11,10.2,11s10.3-3,10.3-11v-4.1C40.3,64.9,35.7,61.8,30,61.8 M34.3,77
	c0,4.1-1.4,5.9-4.3,5.9s-4.2-1.8-4.2-5.9v-4.1c0-4.2,1.4-5.9,4.2-5.9s4.3,1.8,4.3,5.9V77z M17.8,62.1H0.7c-0.4,0-0.7,0.3-0.7,0.6
	l0,0v3.5C0,66.7,0.3,67,0.6,67l0,0h5.6v20c0,0.4,0.3,0.7,0.7,0.7l0,0h4.5c0.4,0,0.7-0.3,0.7-0.7l0,0V67h5.6c0.4,0,0.7-0.3,0.7-0.7
	l0,0v-3.6C18.5,62.4,18.2,62.1,17.8,62.1 M59.4,62.1H42.3c-0.4,0-0.7,0.3-0.7,0.6l0,0v3.5c0,0.4,0.3,0.7,0.7,0.7l0,0h5.6v20
	c0,0.4,0.3,0.7,0.7,0.7l0,0h4.5c0.4,0,0.7-0.3,0.7-0.7l0,0V67h5.6c0.4,0,0.7-0.3,0.7-0.7l0,0v-3.6C60.1,62.4,59.7,62.1,59.4,62.1
	 M83,62.1h-4.8c-0.3,0-0.6,0.3-0.7,0.6l-4.3,19.9c-0.1,0.4-0.2,0.5-0.5,0.5s-0.4-0.1-0.5-0.5L68,62.8c-0.1-0.3-0.3-0.6-0.7-0.6h-4.8
	c-0.3,0-0.6,0.2-0.6,0.5l0,0c0,0.1,0,0.1,0,0.2L67,84.2c0.8,3.3,3.4,3.8,5.8,3.8s4.9-0.5,5.7-3.8l5.1-21.3c0-0.1,0-0.1,0-0.2
	C83.6,62.4,83.4,62.1,83,62.1C83.1,62.1,83,62.1,83,62.1 M98.1,73.5l-4.4-2.4c-1.9-1-2.3-1.4-2.3-2.4c0-1.2,0.7-1.8,2.7-1.8
	c2.3,0,6.3,0.3,7.3,0.4h0.1c0.3,0,0.6-0.2,0.6-0.5v-0.1v-3.5c0-0.3-0.2-0.6-0.5-0.6c-2.4-0.5-4.8-0.7-7.3-0.8
	c-6.7,0-8.8,2.9-8.8,6.7c0,2.5,0.9,4.7,4.1,6.6l4.8,2.8c1.8,1,2.2,1.6,2.2,2.6c0,1.7-0.7,2.4-3.1,2.4c-1.3,0-5.1-0.3-6.6-0.4h-0.1
	c-0.3,0-0.6,0.2-0.6,0.5v0.1v3.4c0,0.4,0.3,0.6,0.7,0.7c2.1,0.5,4.3,0.8,6.5,0.8c7,0,9.4-3.9,9.4-7.6
	C102.7,77.7,101.6,75.4,98.1,73.5"/>
</svg>
