<?xml version="1.0"?>
<svg width="162" height="48" xmlns="http://www.w3.org/2000/svg" xmlns:svg="http://www.w3.org/2000/svg">
 <g class="layer">
  <title>Layer 1</title>
  <path d="m23.73,0c13.11,0 23.73,10.75 23.73,24c0,13.26 -10.62,24 -23.73,24s-23.73,-10.74 -23.73,-24c0,-13.25 10.62,-24 23.73,-24zm16,13.51c-1.52,-1.31 -21.3,-6.37 -22.81,-5.84c-0.54,0.51 -0.83,4.33 -0.87,8.46c-4.17,-0.99 -7.76,-1.69 -8.37,-1.48c-1.17,1.1 -1.17,17.69 0,19.38c1.51,1.31 21.3,6.37 22.81,5.84c0.54,-0.51 0.83,-4.33 0.87,-8.46c4.17,1 7.76,1.69 8.37,1.48c1.17,-1.09 1.17,-17.69 0,-19.38zm48.44,-3.11c5.78,0 10.37,3.15 10.37,11.37l0,4.22c0,8.21 -4.59,11.37 -10.37,11.37c-5.78,0 -10.37,-3.16 -10.37,-11.37l0,-4.22c0,-8.22 4.59,-11.37 10.37,-11.37zm37.83,0.32c0.35,0 0.63,0.28 0.7,0.64l4.37,20.44c0.08,0.39 0.18,0.53 0.5,0.53s0.42,-0.14 0.49,-0.53l4.38,-20.44c0.06,-0.36 0.31,-0.64 0.66,-0.64l4.9,0c0.35,0 0.6,0.21 0.6,0.56c0,0.04 -0.04,0.11 -0.04,0.18l-5.21,21.96c-0.81,3.41 -3.37,3.94 -5.78,3.94c-2.42,0 -5.01,-0.53 -5.82,-3.94l-5.22,-21.96c0,-0.07 -0.03,-0.1 -0.03,-0.17c0,-0.32 0.28,-0.57 0.63,-0.57l4.87,0zm27.32,-0.32c2.55,0 6.09,0.43 7.42,0.78c0.28,0.07 0.53,0.25 0.53,0.64l0,3.57c0,0.32 -0.14,0.61 -0.6,0.61l-0.07,0c-0.98,-0.07 -5.04,-0.39 -7.42,-0.39c-2,0 -2.74,0.6 -2.74,1.87c0,1 0.46,1.46 2.35,2.48l4.48,2.45c3.65,1.98 4.73,4.32 4.73,7.19c0,3.75 -2.45,7.76 -9.56,7.76c-2.77,0 -4.83,-0.32 -6.62,-0.78c-0.35,-0.11 -0.7,-0.32 -0.7,-0.71l0,-3.47c0,-0.5 0.28,-0.68 0.63,-0.68l0.11,0c1.43,0.15 5.28,0.43 6.65,0.43c2.42,0 3.12,-0.78 3.12,-2.48c0,-1.03 -0.5,-1.59 -2.31,-2.69l-4.84,-2.91c-3.26,-1.95 -4.13,-4.18 -4.13,-6.76c0,-3.9 2.17,-6.91 8.97,-6.91zm-77.65,0.32c0.38,0 0.73,0.28 0.73,0.67l0,3.65c0,0.39 -0.35,0.67 -0.73,0.67l-5.67,0l0,20.62c0,0.39 -0.32,0.71 -0.7,0.71l-4.6,0c-0.38,0 -0.7,-0.32 -0.7,-0.71l0,-20.62l-5.7,0c-0.39,0 -0.7,-0.28 -0.7,-0.67l0,-3.65c0,-0.39 0.31,-0.67 0.7,-0.67l17.37,0zm42.27,0c0.39,0 0.74,0.28 0.74,0.67l0,3.65c0,0.39 -0.35,0.67 -0.74,0.67l-5.67,0l0,20.62c0,0.39 -0.32,0.71 -0.7,0.71l-4.59,0c-0.39,0 -0.7,-0.32 -0.7,-0.71l0,-20.62l-5.71,0c-0.39,0 -0.7,-0.28 -0.7,-0.67l0,-3.65c0,-0.39 0.31,-0.67 0.7,-0.67l17.37,0zm-29.77,4.99c-2.94,0 -4.31,1.81 -4.31,6.06l0,4.22c0,4.25 1.37,6.05 4.31,6.05c2.94,0 4.34,-1.8 4.34,-6.05l0,-4.22c0,-4.25 -1.4,-6.06 -4.34,-6.06zm-72.12,0.42c6.14,1.47 13.54,3.58 14.44,4.36c0.63,0.91 0.92,6.13 0.87,10.92c-6.14,-1.46 -13.54,-3.58 -14.44,-4.36c-0.63,-0.91 -0.92,-6.12 -0.87,-10.92z" fill="#2c85c8" fill-rule="evenodd" id="totvs_blue"/>
 </g>
</svg>